<mxfile host="Electron" modified="2024-01-26T07:34:17.334Z" agent="Mozilla/5.0 (Windows NT 10.0; Win64; x64) AppleWebKit/537.36 (KHTML, like Gecko) draw.io/22.0.2 Chrome/114.0.5735.289 Electron/25.8.4 Safari/537.36" etag="bW-Ei278iDWZKWZqY-20" version="22.0.2" type="device">
  <diagram name="Page-1" id="_mGLaoDk6QDmeuDdav_K">
    <mxGraphModel dx="714" dy="418" grid="1" gridSize="10" guides="1" tooltips="1" connect="1" arrows="1" fold="1" page="1" pageScale="1" pageWidth="827" pageHeight="1169" math="0" shadow="0">
      <root>
        <mxCell id="0" />
        <mxCell id="1" parent="0" />
        <mxCell id="AS2f9lZHMe0GR5eItfKD-212" value="" style="rounded=0;whiteSpace=wrap;html=1;fillColor=#f5f5f5;fontColor=#333333;strokeColor=#ED7100;strokeWidth=5;" parent="1" vertex="1">
          <mxGeometry x="550" y="95" width="420" height="525" as="geometry" />
        </mxCell>
        <mxCell id="AS2f9lZHMe0GR5eItfKD-155" value="" style="rounded=0;whiteSpace=wrap;html=1;dashed=1;fillColor=none;strokeColor=#7AA116;fontStyle=0;strokeWidth=2;" parent="1" vertex="1">
          <mxGeometry x="40" y="202.5" width="400" height="460" as="geometry" />
        </mxCell>
        <mxCell id="AS2f9lZHMe0GR5eItfKD-22" value="" style="rounded=0;whiteSpace=wrap;html=1;fillColor=#E6E6E6;strokeColor=#7aa116;strokeWidth=5;glass=0;" parent="1" vertex="1">
          <mxGeometry x="80" y="272.5" width="320" height="350" as="geometry" />
        </mxCell>
        <mxCell id="AS2f9lZHMe0GR5eItfKD-24" value="" style="rounded=0;whiteSpace=wrap;html=1;fillColor=#dae8fc;strokeColor=#6c8ebf;" parent="1" vertex="1">
          <mxGeometry x="89" y="402.5" width="121" height="80" as="geometry" />
        </mxCell>
        <mxCell id="AS2f9lZHMe0GR5eItfKD-39" value="Arm SystemReady" style="rounded=0;whiteSpace=wrap;html=1;fontSize=15;strokeColor=none;fillColor=none;" parent="1" vertex="1">
          <mxGeometry x="89" y="572.5" width="300" height="40" as="geometry" />
        </mxCell>
        <mxCell id="AS2f9lZHMe0GR5eItfKD-40" value="Linux OS" style="rounded=0;whiteSpace=wrap;html=1;fontSize=15;strokeColor=none;fillColor=#6C8EBF;" parent="1" vertex="1">
          <mxGeometry x="89" y="522.5" width="300" height="50" as="geometry" />
        </mxCell>
        <mxCell id="AS2f9lZHMe0GR5eItfKD-41" value="" style="endArrow=none;dashed=1;html=1;rounded=0;" parent="1" edge="1">
          <mxGeometry width="50" height="50" relative="1" as="geometry">
            <mxPoint x="89" y="522.5" as="sourcePoint" />
            <mxPoint x="389" y="522.5" as="targetPoint" />
          </mxGeometry>
        </mxCell>
        <mxCell id="AS2f9lZHMe0GR5eItfKD-42" value="" style="endArrow=none;dashed=1;html=1;rounded=0;exitX=0;exitY=1;exitDx=0;exitDy=0;" parent="1" source="AS2f9lZHMe0GR5eItfKD-39" edge="1">
          <mxGeometry width="50" height="50" relative="1" as="geometry">
            <mxPoint x="139" y="692.5" as="sourcePoint" />
            <mxPoint x="89" y="522.5" as="targetPoint" />
          </mxGeometry>
        </mxCell>
        <mxCell id="AS2f9lZHMe0GR5eItfKD-43" value="" style="endArrow=none;dashed=1;html=1;rounded=0;exitX=1;exitY=1;exitDx=0;exitDy=0;entryX=1;entryY=0;entryDx=0;entryDy=0;" parent="1" source="AS2f9lZHMe0GR5eItfKD-39" target="AS2f9lZHMe0GR5eItfKD-40" edge="1">
          <mxGeometry width="50" height="50" relative="1" as="geometry">
            <mxPoint x="99" y="622.5" as="sourcePoint" />
            <mxPoint x="99" y="532.5" as="targetPoint" />
          </mxGeometry>
        </mxCell>
        <mxCell id="AS2f9lZHMe0GR5eItfKD-44" value="" style="endArrow=none;dashed=1;html=1;rounded=0;entryX=1;entryY=1;entryDx=0;entryDy=0;exitX=0;exitY=1;exitDx=0;exitDy=0;" parent="1" source="AS2f9lZHMe0GR5eItfKD-39" target="AS2f9lZHMe0GR5eItfKD-39" edge="1">
          <mxGeometry width="50" height="50" relative="1" as="geometry">
            <mxPoint x="99" y="532.5" as="sourcePoint" />
            <mxPoint x="399" y="532.5" as="targetPoint" />
          </mxGeometry>
        </mxCell>
        <mxCell id="AS2f9lZHMe0GR5eItfKD-19" value="" style="rounded=0;whiteSpace=wrap;html=1;fillColor=#E6E6E6;strokeColor=#7AA116;" parent="1" vertex="1">
          <mxGeometry x="249" y="342.5" width="140" height="170" as="geometry" />
        </mxCell>
        <mxCell id="AS2f9lZHMe0GR5eItfKD-20" value="" style="sketch=0;points=[[0,0,0],[0.25,0,0],[0.5,0,0],[0.75,0,0],[1,0,0],[0,1,0],[0.25,1,0],[0.5,1,0],[0.75,1,0],[1,1,0],[0,0.25,0],[0,0.5,0],[0,0.75,0],[1,0.25,0],[1,0.5,0],[1,0.75,0]];outlineConnect=0;fontColor=#232F3E;fillColor=#7AA116;strokeColor=#ffffff;dashed=0;verticalLabelPosition=bottom;verticalAlign=top;align=center;html=1;fontSize=12;fontStyle=0;aspect=fixed;shape=mxgraph.aws4.resourceIcon;resIcon=mxgraph.aws4.greengrass;" parent="1" vertex="1">
          <mxGeometry x="249" y="342.5" width="40" height="40" as="geometry" />
        </mxCell>
        <mxCell id="AS2f9lZHMe0GR5eItfKD-21" value="" style="image;sketch=0;aspect=fixed;html=1;points=[];align=center;fontSize=12;image=img/lib/mscae/Docker.svg;" parent="1" vertex="1">
          <mxGeometry x="171.22000000000003" y="382.5" width="48.78" height="40" as="geometry" />
        </mxCell>
        <mxCell id="AS2f9lZHMe0GR5eItfKD-48" value="" style="group" parent="1" vertex="1" connectable="0">
          <mxGeometry x="100" y="432.5" width="91" height="40" as="geometry" />
        </mxCell>
        <mxCell id="AS2f9lZHMe0GR5eItfKD-47" value="Application" style="rounded=0;whiteSpace=wrap;html=1;" parent="AS2f9lZHMe0GR5eItfKD-48" vertex="1">
          <mxGeometry x="10" width="81" height="30" as="geometry" />
        </mxCell>
        <mxCell id="AS2f9lZHMe0GR5eItfKD-45" value="Application" style="rounded=0;whiteSpace=wrap;html=1;" parent="AS2f9lZHMe0GR5eItfKD-48" vertex="1">
          <mxGeometry x="5.5" y="5" width="81" height="30" as="geometry" />
        </mxCell>
        <mxCell id="AS2f9lZHMe0GR5eItfKD-46" value="Applications" style="rounded=0;whiteSpace=wrap;html=1;" parent="AS2f9lZHMe0GR5eItfKD-48" vertex="1">
          <mxGeometry y="10" width="81" height="30" as="geometry" />
        </mxCell>
        <mxCell id="AS2f9lZHMe0GR5eItfKD-51" value="" style="sketch=0;outlineConnect=0;fontColor=#232F3E;gradientColor=none;fillColor=#7AA116;strokeColor=none;dashed=0;verticalLabelPosition=bottom;verticalAlign=top;align=center;html=1;fontSize=12;fontStyle=0;aspect=fixed;pointerEvents=1;shape=mxgraph.aws4.mqtt_protocol;" parent="1" vertex="1">
          <mxGeometry x="460" y="447.5" width="40" height="40" as="geometry" />
        </mxCell>
        <mxCell id="AS2f9lZHMe0GR5eItfKD-57" value="AWS IoT Greengrass" style="text;html=1;strokeColor=none;fillColor=none;align=left;verticalAlign=middle;whiteSpace=wrap;rounded=0;fontStyle=1" parent="1" vertex="1">
          <mxGeometry x="303" y="347.5" width="76" height="30" as="geometry" />
        </mxCell>
        <mxCell id="AS2f9lZHMe0GR5eItfKD-9" value="" style="sketch=0;outlineConnect=0;fontColor=#232F3E;gradientColor=none;fillColor=#7AA116;strokeColor=none;dashed=0;verticalLabelPosition=bottom;verticalAlign=top;align=center;html=1;fontSize=12;fontStyle=0;aspect=fixed;pointerEvents=1;shape=mxgraph.aws4.certificate_manager;" parent="1" vertex="1">
          <mxGeometry x="106" y="282.5" width="40" height="52.88" as="geometry" />
        </mxCell>
        <mxCell id="AS2f9lZHMe0GR5eItfKD-58" value="Greengrass components" style="text;html=1;strokeColor=none;fillColor=none;align=center;verticalAlign=middle;whiteSpace=wrap;rounded=0;fontStyle=0" parent="1" vertex="1">
          <mxGeometry x="281.5" y="472.5" width="76" height="40" as="geometry" />
        </mxCell>
        <mxCell id="AS2f9lZHMe0GR5eItfKD-56" value="" style="group" parent="1" vertex="1" connectable="0">
          <mxGeometry x="289" y="412.5" width="60" height="60" as="geometry" />
        </mxCell>
        <mxCell id="AS2f9lZHMe0GR5eItfKD-49" value="" style="whiteSpace=wrap;html=1;aspect=fixed;fillColor=#FFFFFF;strokeColor=#7AA116;" parent="AS2f9lZHMe0GR5eItfKD-56" vertex="1">
          <mxGeometry x="10" width="50" height="50" as="geometry" />
        </mxCell>
        <mxCell id="AS2f9lZHMe0GR5eItfKD-11" value="" style="sketch=0;outlineConnect=0;fontColor=#232F3E;gradientColor=none;fillColor=#7AA116;strokeColor=none;dashed=0;verticalLabelPosition=bottom;verticalAlign=top;align=center;html=1;fontSize=12;fontStyle=0;aspect=fixed;pointerEvents=1;shape=mxgraph.aws4.iot_greengrass_component;" parent="AS2f9lZHMe0GR5eItfKD-56" vertex="1">
          <mxGeometry x="15" y="5" width="40" height="40" as="geometry" />
        </mxCell>
        <mxCell id="AS2f9lZHMe0GR5eItfKD-52" value="" style="whiteSpace=wrap;html=1;aspect=fixed;fillColor=#FFFFFF;strokeColor=#7AA116;" parent="AS2f9lZHMe0GR5eItfKD-56" vertex="1">
          <mxGeometry x="5" y="5" width="50" height="50" as="geometry" />
        </mxCell>
        <mxCell id="AS2f9lZHMe0GR5eItfKD-53" value="" style="sketch=0;outlineConnect=0;fontColor=#232F3E;gradientColor=none;fillColor=#7AA116;strokeColor=none;dashed=0;verticalLabelPosition=bottom;verticalAlign=top;align=center;html=1;fontSize=12;fontStyle=0;aspect=fixed;pointerEvents=1;shape=mxgraph.aws4.iot_greengrass_component;" parent="AS2f9lZHMe0GR5eItfKD-56" vertex="1">
          <mxGeometry x="10" y="10" width="40" height="40" as="geometry" />
        </mxCell>
        <mxCell id="AS2f9lZHMe0GR5eItfKD-54" value="" style="whiteSpace=wrap;html=1;aspect=fixed;fillColor=#FFFFFF;strokeColor=#7AA116;" parent="AS2f9lZHMe0GR5eItfKD-56" vertex="1">
          <mxGeometry y="10" width="50" height="50" as="geometry" />
        </mxCell>
        <mxCell id="AS2f9lZHMe0GR5eItfKD-55" value="" style="sketch=0;outlineConnect=0;fontColor=#232F3E;gradientColor=none;fillColor=#7AA116;strokeColor=none;dashed=0;verticalLabelPosition=bottom;verticalAlign=top;align=center;html=1;fontSize=12;fontStyle=0;aspect=fixed;pointerEvents=1;shape=mxgraph.aws4.iot_greengrass_component;" parent="AS2f9lZHMe0GR5eItfKD-56" vertex="1">
          <mxGeometry x="5" y="15" width="40" height="40" as="geometry" />
        </mxCell>
        <mxCell id="AS2f9lZHMe0GR5eItfKD-59" value="" style="endArrow=classic;startArrow=classic;html=1;rounded=0;entryX=0;entryY=0.5;entryDx=0;entryDy=0;" parent="1" target="AS2f9lZHMe0GR5eItfKD-54" edge="1">
          <mxGeometry width="50" height="50" relative="1" as="geometry">
            <mxPoint x="210" y="447.5" as="sourcePoint" />
            <mxPoint x="289" y="452.3599999999999" as="targetPoint" />
          </mxGeometry>
        </mxCell>
        <mxCell id="AS2f9lZHMe0GR5eItfKD-60" value="Certificate" style="text;html=1;strokeColor=none;fillColor=none;align=center;verticalAlign=middle;whiteSpace=wrap;rounded=0;fontStyle=0" parent="1" vertex="1">
          <mxGeometry x="89" y="335.3800000000001" width="76" height="30" as="geometry" />
        </mxCell>
        <mxCell id="AS2f9lZHMe0GR5eItfKD-61" value="" style="rounded=0;whiteSpace=wrap;html=1;fillColor=#7aa116;strokeColor=#729615;" parent="1" vertex="1">
          <mxGeometry x="330" y="222.5" width="90" height="100" as="geometry" />
        </mxCell>
        <mxCell id="AS2f9lZHMe0GR5eItfKD-62" value="" style="sketch=0;outlineConnect=0;fontColor=#232F3E;gradientColor=none;fillColor=#FFFFFF;strokeColor=none;dashed=0;verticalLabelPosition=bottom;verticalAlign=top;align=center;html=1;fontSize=12;fontStyle=0;aspect=fixed;pointerEvents=1;shape=mxgraph.aws4.hardware_board;labelBackgroundColor=#82b366;" parent="1" vertex="1">
          <mxGeometry x="345" y="232.5" width="60" height="60" as="geometry" />
        </mxCell>
        <mxCell id="AS2f9lZHMe0GR5eItfKD-63" value="Device" style="text;html=1;strokeColor=none;fillColor=none;align=center;verticalAlign=middle;whiteSpace=wrap;rounded=0;fontSize=15;fontStyle=1;fontColor=#FFFFFF;" parent="1" vertex="1">
          <mxGeometry x="330" y="292.5" width="90" height="30" as="geometry" />
        </mxCell>
        <mxCell id="AS2f9lZHMe0GR5eItfKD-65" value="" style="rounded=0;whiteSpace=wrap;html=1;fillColor=#E6E6E6;strokeColor=#7aa116;strokeWidth=5;glass=0;" parent="1" vertex="1">
          <mxGeometry x="70" y="282.5" width="320" height="350" as="geometry" />
        </mxCell>
        <mxCell id="AS2f9lZHMe0GR5eItfKD-66" value="" style="rounded=0;whiteSpace=wrap;html=1;fillColor=#dae8fc;strokeColor=#6c8ebf;" parent="1" vertex="1">
          <mxGeometry x="79" y="412.5" width="121" height="80" as="geometry" />
        </mxCell>
        <mxCell id="AS2f9lZHMe0GR5eItfKD-67" value="Arm SystemReady" style="rounded=0;whiteSpace=wrap;html=1;fontSize=15;strokeColor=none;fillColor=none;" parent="1" vertex="1">
          <mxGeometry x="79" y="582.5" width="300" height="40" as="geometry" />
        </mxCell>
        <mxCell id="AS2f9lZHMe0GR5eItfKD-68" value="Linux OS" style="rounded=0;whiteSpace=wrap;html=1;fontSize=15;strokeColor=none;fillColor=#6C8EBF;" parent="1" vertex="1">
          <mxGeometry x="79" y="532.5" width="300" height="50" as="geometry" />
        </mxCell>
        <mxCell id="AS2f9lZHMe0GR5eItfKD-69" value="" style="endArrow=none;dashed=1;html=1;rounded=0;" parent="1" edge="1">
          <mxGeometry width="50" height="50" relative="1" as="geometry">
            <mxPoint x="79" y="532.5" as="sourcePoint" />
            <mxPoint x="379" y="532.5" as="targetPoint" />
          </mxGeometry>
        </mxCell>
        <mxCell id="AS2f9lZHMe0GR5eItfKD-70" value="" style="endArrow=none;dashed=1;html=1;rounded=0;exitX=0;exitY=1;exitDx=0;exitDy=0;" parent="1" source="AS2f9lZHMe0GR5eItfKD-67" edge="1">
          <mxGeometry width="50" height="50" relative="1" as="geometry">
            <mxPoint x="129" y="702.5" as="sourcePoint" />
            <mxPoint x="79" y="532.5" as="targetPoint" />
          </mxGeometry>
        </mxCell>
        <mxCell id="AS2f9lZHMe0GR5eItfKD-71" value="" style="endArrow=none;dashed=1;html=1;rounded=0;exitX=1;exitY=1;exitDx=0;exitDy=0;entryX=1;entryY=0;entryDx=0;entryDy=0;" parent="1" source="AS2f9lZHMe0GR5eItfKD-67" target="AS2f9lZHMe0GR5eItfKD-68" edge="1">
          <mxGeometry width="50" height="50" relative="1" as="geometry">
            <mxPoint x="89" y="632.5" as="sourcePoint" />
            <mxPoint x="89" y="542.5" as="targetPoint" />
          </mxGeometry>
        </mxCell>
        <mxCell id="AS2f9lZHMe0GR5eItfKD-72" value="" style="endArrow=none;dashed=1;html=1;rounded=0;entryX=1;entryY=1;entryDx=0;entryDy=0;exitX=0;exitY=1;exitDx=0;exitDy=0;" parent="1" source="AS2f9lZHMe0GR5eItfKD-67" target="AS2f9lZHMe0GR5eItfKD-67" edge="1">
          <mxGeometry width="50" height="50" relative="1" as="geometry">
            <mxPoint x="89" y="542.5" as="sourcePoint" />
            <mxPoint x="389" y="542.5" as="targetPoint" />
          </mxGeometry>
        </mxCell>
        <mxCell id="AS2f9lZHMe0GR5eItfKD-73" value="" style="rounded=0;whiteSpace=wrap;html=1;fillColor=#E6E6E6;strokeColor=#7AA116;" parent="1" vertex="1">
          <mxGeometry x="239" y="352.5" width="140" height="170" as="geometry" />
        </mxCell>
        <mxCell id="AS2f9lZHMe0GR5eItfKD-74" value="" style="sketch=0;points=[[0,0,0],[0.25,0,0],[0.5,0,0],[0.75,0,0],[1,0,0],[0,1,0],[0.25,1,0],[0.5,1,0],[0.75,1,0],[1,1,0],[0,0.25,0],[0,0.5,0],[0,0.75,0],[1,0.25,0],[1,0.5,0],[1,0.75,0]];outlineConnect=0;fontColor=#232F3E;fillColor=#7AA116;strokeColor=#ffffff;dashed=0;verticalLabelPosition=bottom;verticalAlign=top;align=center;html=1;fontSize=12;fontStyle=0;aspect=fixed;shape=mxgraph.aws4.resourceIcon;resIcon=mxgraph.aws4.greengrass;" parent="1" vertex="1">
          <mxGeometry x="239" y="352.5" width="40" height="40" as="geometry" />
        </mxCell>
        <mxCell id="AS2f9lZHMe0GR5eItfKD-75" value="" style="image;sketch=0;aspect=fixed;html=1;points=[];align=center;fontSize=12;image=img/lib/mscae/Docker.svg;" parent="1" vertex="1">
          <mxGeometry x="161.22000000000003" y="392.5" width="48.78" height="40" as="geometry" />
        </mxCell>
        <mxCell id="AS2f9lZHMe0GR5eItfKD-76" value="" style="group" parent="1" vertex="1" connectable="0">
          <mxGeometry x="90" y="442.5" width="91" height="40" as="geometry" />
        </mxCell>
        <mxCell id="AS2f9lZHMe0GR5eItfKD-77" value="Application" style="rounded=0;whiteSpace=wrap;html=1;" parent="AS2f9lZHMe0GR5eItfKD-76" vertex="1">
          <mxGeometry x="10" width="81" height="30" as="geometry" />
        </mxCell>
        <mxCell id="AS2f9lZHMe0GR5eItfKD-78" value="Application" style="rounded=0;whiteSpace=wrap;html=1;" parent="AS2f9lZHMe0GR5eItfKD-76" vertex="1">
          <mxGeometry x="5.5" y="5" width="81" height="30" as="geometry" />
        </mxCell>
        <mxCell id="AS2f9lZHMe0GR5eItfKD-79" value="Applications" style="rounded=0;whiteSpace=wrap;html=1;" parent="AS2f9lZHMe0GR5eItfKD-76" vertex="1">
          <mxGeometry y="10" width="81" height="30" as="geometry" />
        </mxCell>
        <mxCell id="AS2f9lZHMe0GR5eItfKD-80" value="AWS IoT Greengrass" style="text;html=1;strokeColor=none;fillColor=none;align=left;verticalAlign=middle;whiteSpace=wrap;rounded=0;fontStyle=1" parent="1" vertex="1">
          <mxGeometry x="293" y="357.5" width="76" height="30" as="geometry" />
        </mxCell>
        <mxCell id="AS2f9lZHMe0GR5eItfKD-81" value="" style="sketch=0;outlineConnect=0;fontColor=#232F3E;gradientColor=none;fillColor=#7AA116;strokeColor=none;dashed=0;verticalLabelPosition=bottom;verticalAlign=top;align=center;html=1;fontSize=12;fontStyle=0;aspect=fixed;pointerEvents=1;shape=mxgraph.aws4.certificate_manager;" parent="1" vertex="1">
          <mxGeometry x="96" y="292.5" width="40" height="52.88" as="geometry" />
        </mxCell>
        <mxCell id="AS2f9lZHMe0GR5eItfKD-82" value="Greengrass components" style="text;html=1;strokeColor=none;fillColor=none;align=center;verticalAlign=middle;whiteSpace=wrap;rounded=0;fontStyle=0" parent="1" vertex="1">
          <mxGeometry x="271.5" y="482.5" width="76" height="40" as="geometry" />
        </mxCell>
        <mxCell id="AS2f9lZHMe0GR5eItfKD-83" value="" style="group" parent="1" vertex="1" connectable="0">
          <mxGeometry x="279" y="422.5" width="60" height="60" as="geometry" />
        </mxCell>
        <mxCell id="AS2f9lZHMe0GR5eItfKD-84" value="" style="whiteSpace=wrap;html=1;aspect=fixed;fillColor=#FFFFFF;strokeColor=#7AA116;" parent="AS2f9lZHMe0GR5eItfKD-83" vertex="1">
          <mxGeometry x="10" width="50" height="50" as="geometry" />
        </mxCell>
        <mxCell id="AS2f9lZHMe0GR5eItfKD-85" value="" style="sketch=0;outlineConnect=0;fontColor=#232F3E;gradientColor=none;fillColor=#7AA116;strokeColor=none;dashed=0;verticalLabelPosition=bottom;verticalAlign=top;align=center;html=1;fontSize=12;fontStyle=0;aspect=fixed;pointerEvents=1;shape=mxgraph.aws4.iot_greengrass_component;" parent="AS2f9lZHMe0GR5eItfKD-83" vertex="1">
          <mxGeometry x="15" y="5" width="40" height="40" as="geometry" />
        </mxCell>
        <mxCell id="AS2f9lZHMe0GR5eItfKD-86" value="" style="whiteSpace=wrap;html=1;aspect=fixed;fillColor=#FFFFFF;strokeColor=#7AA116;" parent="AS2f9lZHMe0GR5eItfKD-83" vertex="1">
          <mxGeometry x="5" y="5" width="50" height="50" as="geometry" />
        </mxCell>
        <mxCell id="AS2f9lZHMe0GR5eItfKD-87" value="" style="sketch=0;outlineConnect=0;fontColor=#232F3E;gradientColor=none;fillColor=#7AA116;strokeColor=none;dashed=0;verticalLabelPosition=bottom;verticalAlign=top;align=center;html=1;fontSize=12;fontStyle=0;aspect=fixed;pointerEvents=1;shape=mxgraph.aws4.iot_greengrass_component;" parent="AS2f9lZHMe0GR5eItfKD-83" vertex="1">
          <mxGeometry x="10" y="10" width="40" height="40" as="geometry" />
        </mxCell>
        <mxCell id="AS2f9lZHMe0GR5eItfKD-88" value="" style="whiteSpace=wrap;html=1;aspect=fixed;fillColor=#FFFFFF;strokeColor=#7AA116;" parent="AS2f9lZHMe0GR5eItfKD-83" vertex="1">
          <mxGeometry y="10" width="50" height="50" as="geometry" />
        </mxCell>
        <mxCell id="AS2f9lZHMe0GR5eItfKD-89" value="" style="sketch=0;outlineConnect=0;fontColor=#232F3E;gradientColor=none;fillColor=#7AA116;strokeColor=none;dashed=0;verticalLabelPosition=bottom;verticalAlign=top;align=center;html=1;fontSize=12;fontStyle=0;aspect=fixed;pointerEvents=1;shape=mxgraph.aws4.iot_greengrass_component;" parent="AS2f9lZHMe0GR5eItfKD-83" vertex="1">
          <mxGeometry x="5" y="15" width="40" height="40" as="geometry" />
        </mxCell>
        <mxCell id="AS2f9lZHMe0GR5eItfKD-90" value="" style="endArrow=classic;startArrow=classic;html=1;rounded=0;entryX=0;entryY=0.5;entryDx=0;entryDy=0;" parent="1" target="AS2f9lZHMe0GR5eItfKD-88" edge="1">
          <mxGeometry width="50" height="50" relative="1" as="geometry">
            <mxPoint x="200" y="457.5" as="sourcePoint" />
            <mxPoint x="279" y="462.3599999999999" as="targetPoint" />
          </mxGeometry>
        </mxCell>
        <mxCell id="AS2f9lZHMe0GR5eItfKD-91" value="Certificate" style="text;html=1;strokeColor=none;fillColor=none;align=center;verticalAlign=middle;whiteSpace=wrap;rounded=0;fontStyle=0" parent="1" vertex="1">
          <mxGeometry x="79" y="345.3800000000001" width="76" height="30" as="geometry" />
        </mxCell>
        <mxCell id="AS2f9lZHMe0GR5eItfKD-92" value="" style="rounded=0;whiteSpace=wrap;html=1;fillColor=#7aa116;strokeColor=#729615;" parent="1" vertex="1">
          <mxGeometry x="320" y="232.5" width="90" height="100" as="geometry" />
        </mxCell>
        <mxCell id="AS2f9lZHMe0GR5eItfKD-93" value="" style="sketch=0;outlineConnect=0;fontColor=#232F3E;gradientColor=none;fillColor=#FFFFFF;strokeColor=none;dashed=0;verticalLabelPosition=bottom;verticalAlign=top;align=center;html=1;fontSize=12;fontStyle=0;aspect=fixed;pointerEvents=1;shape=mxgraph.aws4.hardware_board;labelBackgroundColor=#82b366;" parent="1" vertex="1">
          <mxGeometry x="335" y="242.5" width="60" height="60" as="geometry" />
        </mxCell>
        <mxCell id="AS2f9lZHMe0GR5eItfKD-94" value="Device" style="text;html=1;strokeColor=none;fillColor=none;align=center;verticalAlign=middle;whiteSpace=wrap;rounded=0;fontSize=15;fontStyle=1;fontColor=#FFFFFF;" parent="1" vertex="1">
          <mxGeometry x="320" y="302.5" width="90" height="30" as="geometry" />
        </mxCell>
        <mxCell id="AS2f9lZHMe0GR5eItfKD-125" value="" style="rounded=0;whiteSpace=wrap;html=1;fillColor=#E6E6E6;strokeColor=#7aa116;strokeWidth=5;glass=0;" parent="1" vertex="1">
          <mxGeometry x="60" y="292.5" width="320" height="350" as="geometry" />
        </mxCell>
        <mxCell id="AS2f9lZHMe0GR5eItfKD-126" value="" style="rounded=0;whiteSpace=wrap;html=1;fillColor=#dae8fc;strokeColor=#6c8ebf;" parent="1" vertex="1">
          <mxGeometry x="69" y="390" width="151" height="142.5" as="geometry" />
        </mxCell>
        <mxCell id="AS2f9lZHMe0GR5eItfKD-127" value="Arm SystemReady" style="rounded=0;whiteSpace=wrap;html=1;fontSize=15;strokeColor=none;fillColor=none;" parent="1" vertex="1">
          <mxGeometry x="69" y="592.5" width="300" height="40" as="geometry" />
        </mxCell>
        <mxCell id="AS2f9lZHMe0GR5eItfKD-128" value="Linux OS" style="rounded=0;whiteSpace=wrap;html=1;fontSize=15;strokeColor=none;fillColor=#6C8EBF;" parent="1" vertex="1">
          <mxGeometry x="69" y="542.5" width="300" height="50" as="geometry" />
        </mxCell>
        <mxCell id="AS2f9lZHMe0GR5eItfKD-129" value="" style="endArrow=none;dashed=1;html=1;rounded=0;" parent="1" edge="1">
          <mxGeometry width="50" height="50" relative="1" as="geometry">
            <mxPoint x="69" y="542.5" as="sourcePoint" />
            <mxPoint x="369" y="542.5" as="targetPoint" />
          </mxGeometry>
        </mxCell>
        <mxCell id="AS2f9lZHMe0GR5eItfKD-130" value="" style="endArrow=none;dashed=1;html=1;rounded=0;exitX=0;exitY=1;exitDx=0;exitDy=0;" parent="1" source="AS2f9lZHMe0GR5eItfKD-127" edge="1">
          <mxGeometry width="50" height="50" relative="1" as="geometry">
            <mxPoint x="119" y="712.5" as="sourcePoint" />
            <mxPoint x="69" y="542.5" as="targetPoint" />
          </mxGeometry>
        </mxCell>
        <mxCell id="AS2f9lZHMe0GR5eItfKD-131" value="" style="endArrow=none;dashed=1;html=1;rounded=0;exitX=1;exitY=1;exitDx=0;exitDy=0;entryX=1;entryY=0;entryDx=0;entryDy=0;" parent="1" source="AS2f9lZHMe0GR5eItfKD-127" target="AS2f9lZHMe0GR5eItfKD-128" edge="1">
          <mxGeometry width="50" height="50" relative="1" as="geometry">
            <mxPoint x="79" y="642.5" as="sourcePoint" />
            <mxPoint x="79" y="552.5" as="targetPoint" />
          </mxGeometry>
        </mxCell>
        <mxCell id="AS2f9lZHMe0GR5eItfKD-132" value="" style="endArrow=none;dashed=1;html=1;rounded=0;entryX=1;entryY=1;entryDx=0;entryDy=0;exitX=0;exitY=1;exitDx=0;exitDy=0;" parent="1" source="AS2f9lZHMe0GR5eItfKD-127" target="AS2f9lZHMe0GR5eItfKD-127" edge="1">
          <mxGeometry width="50" height="50" relative="1" as="geometry">
            <mxPoint x="79" y="552.5" as="sourcePoint" />
            <mxPoint x="379" y="552.5" as="targetPoint" />
          </mxGeometry>
        </mxCell>
        <mxCell id="AS2f9lZHMe0GR5eItfKD-133" value="" style="rounded=0;whiteSpace=wrap;html=1;fillColor=#E6E6E6;strokeColor=#7AA116;" parent="1" vertex="1">
          <mxGeometry x="229" y="362.5" width="140" height="170" as="geometry" />
        </mxCell>
        <mxCell id="AS2f9lZHMe0GR5eItfKD-134" value="" style="sketch=0;points=[[0,0,0],[0.25,0,0],[0.5,0,0],[0.75,0,0],[1,0,0],[0,1,0],[0.25,1,0],[0.5,1,0],[0.75,1,0],[1,1,0],[0,0.25,0],[0,0.5,0],[0,0.75,0],[1,0.25,0],[1,0.5,0],[1,0.75,0]];outlineConnect=0;fontColor=#232F3E;fillColor=#7AA116;strokeColor=#ffffff;dashed=0;verticalLabelPosition=bottom;verticalAlign=top;align=center;html=1;fontSize=12;fontStyle=0;aspect=fixed;shape=mxgraph.aws4.resourceIcon;resIcon=mxgraph.aws4.greengrass;" parent="1" vertex="1">
          <mxGeometry x="229" y="362.5" width="40" height="40" as="geometry" />
        </mxCell>
        <mxCell id="AS2f9lZHMe0GR5eItfKD-135" value="" style="image;sketch=0;aspect=fixed;html=1;points=[];align=center;fontSize=12;image=img/lib/mscae/Docker.svg;" parent="1" vertex="1">
          <mxGeometry x="165" y="373" width="48.78" height="40" as="geometry" />
        </mxCell>
        <mxCell id="AS2f9lZHMe0GR5eItfKD-140" value="AWS IoT Greengrass" style="text;html=1;strokeColor=none;fillColor=none;align=left;verticalAlign=middle;whiteSpace=wrap;rounded=0;fontStyle=1;fontColor=#7AA116;" parent="1" vertex="1">
          <mxGeometry x="273" y="367.5" width="76" height="30" as="geometry" />
        </mxCell>
        <mxCell id="AS2f9lZHMe0GR5eItfKD-141" value="" style="sketch=0;outlineConnect=0;fontColor=#232F3E;gradientColor=none;fillColor=#7AA116;strokeColor=none;dashed=0;verticalLabelPosition=bottom;verticalAlign=top;align=center;html=1;fontSize=12;fontStyle=0;aspect=fixed;pointerEvents=1;shape=mxgraph.aws4.certificate_manager;" parent="1" vertex="1">
          <mxGeometry x="92" y="302.4999999999999" width="37.82" height="50" as="geometry" />
        </mxCell>
        <mxCell id="AS2f9lZHMe0GR5eItfKD-142" value="Greengrass components" style="text;html=1;strokeColor=none;fillColor=none;align=center;verticalAlign=middle;whiteSpace=wrap;rounded=0;fontStyle=0" parent="1" vertex="1">
          <mxGeometry x="261.5" y="492.5" width="76" height="40" as="geometry" />
        </mxCell>
        <mxCell id="AS2f9lZHMe0GR5eItfKD-143" value="" style="group" parent="1" vertex="1" connectable="0">
          <mxGeometry x="269" y="432.5" width="60" height="60" as="geometry" />
        </mxCell>
        <mxCell id="AS2f9lZHMe0GR5eItfKD-144" value="" style="whiteSpace=wrap;html=1;aspect=fixed;fillColor=#FFFFFF;strokeColor=#7AA116;" parent="AS2f9lZHMe0GR5eItfKD-143" vertex="1">
          <mxGeometry x="10" width="50" height="50" as="geometry" />
        </mxCell>
        <mxCell id="AS2f9lZHMe0GR5eItfKD-145" value="" style="sketch=0;outlineConnect=0;fontColor=#232F3E;gradientColor=none;fillColor=#7AA116;strokeColor=none;dashed=0;verticalLabelPosition=bottom;verticalAlign=top;align=center;html=1;fontSize=12;fontStyle=0;aspect=fixed;pointerEvents=1;shape=mxgraph.aws4.iot_greengrass_component;" parent="AS2f9lZHMe0GR5eItfKD-143" vertex="1">
          <mxGeometry x="15" y="5" width="40" height="40" as="geometry" />
        </mxCell>
        <mxCell id="AS2f9lZHMe0GR5eItfKD-146" value="" style="whiteSpace=wrap;html=1;aspect=fixed;fillColor=#FFFFFF;strokeColor=#7AA116;" parent="AS2f9lZHMe0GR5eItfKD-143" vertex="1">
          <mxGeometry x="5" y="5" width="50" height="50" as="geometry" />
        </mxCell>
        <mxCell id="AS2f9lZHMe0GR5eItfKD-147" value="" style="sketch=0;outlineConnect=0;fontColor=#232F3E;gradientColor=none;fillColor=#7AA116;strokeColor=none;dashed=0;verticalLabelPosition=bottom;verticalAlign=top;align=center;html=1;fontSize=12;fontStyle=0;aspect=fixed;pointerEvents=1;shape=mxgraph.aws4.iot_greengrass_component;" parent="AS2f9lZHMe0GR5eItfKD-143" vertex="1">
          <mxGeometry x="10" y="10" width="40" height="40" as="geometry" />
        </mxCell>
        <mxCell id="AS2f9lZHMe0GR5eItfKD-148" value="" style="whiteSpace=wrap;html=1;aspect=fixed;fillColor=#FFFFFF;strokeColor=#7AA116;" parent="AS2f9lZHMe0GR5eItfKD-143" vertex="1">
          <mxGeometry y="10" width="50" height="50" as="geometry" />
        </mxCell>
        <mxCell id="AS2f9lZHMe0GR5eItfKD-149" value="" style="sketch=0;outlineConnect=0;fontColor=#232F3E;gradientColor=none;fillColor=#7AA116;strokeColor=none;dashed=0;verticalLabelPosition=bottom;verticalAlign=top;align=center;html=1;fontSize=12;fontStyle=0;aspect=fixed;pointerEvents=1;shape=mxgraph.aws4.iot_greengrass_component;" parent="AS2f9lZHMe0GR5eItfKD-143" vertex="1">
          <mxGeometry x="5" y="15" width="40" height="40" as="geometry" />
        </mxCell>
        <mxCell id="AS2f9lZHMe0GR5eItfKD-150" value="" style="endArrow=classic;startArrow=classic;html=1;rounded=0;entryX=0;entryY=0.5;entryDx=0;entryDy=0;exitX=1;exitY=0.75;exitDx=0;exitDy=0;" parent="1" target="AS2f9lZHMe0GR5eItfKD-148" edge="1" source="AS2f9lZHMe0GR5eItfKD-137">
          <mxGeometry width="50" height="50" relative="1" as="geometry">
            <mxPoint x="190" y="467.5" as="sourcePoint" />
            <mxPoint x="269" y="472.3599999999999" as="targetPoint" />
          </mxGeometry>
        </mxCell>
        <mxCell id="AS2f9lZHMe0GR5eItfKD-151" value="Unique certificate" style="text;html=1;strokeColor=none;fillColor=none;align=center;verticalAlign=middle;whiteSpace=wrap;rounded=0;fontStyle=0" parent="1" vertex="1">
          <mxGeometry x="72.91" y="350" width="76" height="30" as="geometry" />
        </mxCell>
        <mxCell id="AS2f9lZHMe0GR5eItfKD-152" value="" style="rounded=0;whiteSpace=wrap;html=1;fillColor=#7aa116;strokeColor=#729615;" parent="1" vertex="1">
          <mxGeometry x="310" y="242.5" width="90" height="100" as="geometry" />
        </mxCell>
        <mxCell id="AS2f9lZHMe0GR5eItfKD-153" value="" style="sketch=0;outlineConnect=0;fontColor=#232F3E;gradientColor=none;fillColor=#FFFFFF;strokeColor=none;dashed=0;verticalLabelPosition=bottom;verticalAlign=top;align=center;html=1;fontSize=12;fontStyle=0;aspect=fixed;pointerEvents=1;shape=mxgraph.aws4.hardware_board;labelBackgroundColor=#82b366;" parent="1" vertex="1">
          <mxGeometry x="325" y="252.5" width="60" height="60" as="geometry" />
        </mxCell>
        <mxCell id="AS2f9lZHMe0GR5eItfKD-154" value="Device" style="text;html=1;strokeColor=none;fillColor=none;align=center;verticalAlign=middle;whiteSpace=wrap;rounded=0;fontSize=15;fontStyle=1;fontColor=#FFFFFF;" parent="1" vertex="1">
          <mxGeometry x="310" y="312.5" width="90" height="30" as="geometry" />
        </mxCell>
        <mxCell id="AS2f9lZHMe0GR5eItfKD-156" value="Device group" style="text;html=1;strokeColor=none;fillColor=none;align=center;verticalAlign=middle;whiteSpace=wrap;rounded=0;fontSize=15;fontStyle=1;fontColor=#7AA116;" parent="1" vertex="1">
          <mxGeometry x="40" y="202.5" width="111" height="30" as="geometry" />
        </mxCell>
        <mxCell id="AS2f9lZHMe0GR5eItfKD-157" value="" style="rounded=0;whiteSpace=wrap;html=1;fillColor=#f5f5f5;fontColor=#333333;strokeColor=#ED7100;strokeWidth=5;" parent="1" vertex="1">
          <mxGeometry x="520" y="125" width="420" height="525" as="geometry" />
        </mxCell>
        <mxCell id="AS2f9lZHMe0GR5eItfKD-158" value="" style="outlineConnect=0;dashed=0;verticalLabelPosition=bottom;verticalAlign=top;align=center;html=1;shape=mxgraph.aws3.virtual_private_cloud;fillColor=#ED7100;gradientColor=none;aspect=fixed;" parent="1" vertex="1">
          <mxGeometry x="880" y="70" width="117.78" height="80" as="geometry" />
        </mxCell>
        <mxCell id="f1BRy_pdMsLX7Fk7XZzN-2" value="" style="sketch=0;points=[[0,0,0],[0.25,0,0],[0.5,0,0],[0.75,0,0],[1,0,0],[0,1,0],[0.25,1,0],[0.5,1,0],[0.75,1,0],[1,1,0],[0,0.25,0],[0,0.5,0],[0,0.75,0],[1,0.25,0],[1,0.5,0],[1,0.75,0]];outlineConnect=0;fontColor=#232F3E;fillColor=#7AA116;strokeColor=#ffffff;dashed=0;verticalLabelPosition=bottom;verticalAlign=top;align=center;html=1;fontSize=12;fontStyle=0;aspect=fixed;shape=mxgraph.aws4.resourceIcon;resIcon=mxgraph.aws4.s3;" parent="1" vertex="1">
          <mxGeometry x="752" y="170" width="40" height="40" as="geometry" />
        </mxCell>
        <mxCell id="AS2f9lZHMe0GR5eItfKD-159" value="AWS" style="text;html=1;strokeColor=none;fillColor=none;align=center;verticalAlign=middle;whiteSpace=wrap;rounded=0;labelBackgroundColor=#ED7100;fontColor=#FFFFFF;strokeWidth=50;fontSize=30;fontStyle=1" parent="1" vertex="1">
          <mxGeometry x="888.8899999999999" y="90" width="100" height="60" as="geometry" />
        </mxCell>
        <mxCell id="f1BRy_pdMsLX7Fk7XZzN-1" value="" style="sketch=0;points=[[0,0,0],[0.25,0,0],[0.5,0,0],[0.75,0,0],[1,0,0],[0,1,0],[0.25,1,0],[0.5,1,0],[0.75,1,0],[1,1,0],[0,0.25,0],[0,0.5,0],[0,0.75,0],[1,0.25,0],[1,0.5,0],[1,0.75,0]];outlineConnect=0;fontColor=#232F3E;fillColor=#7AA116;strokeColor=#ffffff;dashed=0;verticalLabelPosition=bottom;verticalAlign=top;align=center;html=1;fontSize=12;fontStyle=0;aspect=fixed;shape=mxgraph.aws4.resourceIcon;resIcon=mxgraph.aws4.s3;" parent="1" vertex="1">
          <mxGeometry x="747" y="175" width="40" height="40" as="geometry" />
        </mxCell>
        <mxCell id="AS2f9lZHMe0GR5eItfKD-169" value="" style="group" parent="1" vertex="1" connectable="0">
          <mxGeometry x="570" y="552.5" width="40" height="40" as="geometry" />
        </mxCell>
        <mxCell id="AS2f9lZHMe0GR5eItfKD-162" value="" style="rounded=0;whiteSpace=wrap;html=1;strokeColor=none;fillColor=#7AA116;" parent="AS2f9lZHMe0GR5eItfKD-169" vertex="1">
          <mxGeometry width="40" height="40" as="geometry" />
        </mxCell>
        <mxCell id="AS2f9lZHMe0GR5eItfKD-164" value="" style="sketch=0;outlineConnect=0;fontColor=#232F3E;gradientColor=none;fillColor=#FFFFFF;strokeColor=none;dashed=0;verticalLabelPosition=bottom;verticalAlign=top;align=center;html=1;fontSize=12;fontStyle=0;aspect=fixed;pointerEvents=1;shape=mxgraph.aws4.iot_greengrass_component;" parent="AS2f9lZHMe0GR5eItfKD-169" vertex="1">
          <mxGeometry x="8" y="8" width="30" height="30" as="geometry" />
        </mxCell>
        <mxCell id="AS2f9lZHMe0GR5eItfKD-166" value="" style="rounded=0;whiteSpace=wrap;html=1;strokeColor=none;fillColor=#7AA116;" parent="AS2f9lZHMe0GR5eItfKD-169" vertex="1">
          <mxGeometry x="6" y="10" width="10" height="25" as="geometry" />
        </mxCell>
        <mxCell id="AS2f9lZHMe0GR5eItfKD-167" value="" style="rounded=0;whiteSpace=wrap;html=1;strokeColor=none;fillColor=#7AA116;direction=south;" parent="AS2f9lZHMe0GR5eItfKD-169" vertex="1">
          <mxGeometry x="11" y="7.119999999999891" width="27" height="10" as="geometry" />
        </mxCell>
        <mxCell id="AS2f9lZHMe0GR5eItfKD-163" value="" style="sketch=0;outlineConnect=0;fontColor=#232F3E;gradientColor=none;fillColor=#FFFFFF;strokeColor=none;dashed=0;verticalLabelPosition=bottom;verticalAlign=top;align=center;html=1;fontSize=12;fontStyle=0;aspect=fixed;pointerEvents=1;shape=mxgraph.aws4.iot_greengrass_component;" parent="AS2f9lZHMe0GR5eItfKD-169" vertex="1">
          <mxGeometry x="3" y="2.880000000000109" width="30" height="30" as="geometry" />
        </mxCell>
        <mxCell id="AS2f9lZHMe0GR5eItfKD-170" value="" style="sketch=0;points=[[0,0,0],[0.25,0,0],[0.5,0,0],[0.75,0,0],[1,0,0],[0,1,0],[0.25,1,0],[0.5,1,0],[0.75,1,0],[1,1,0],[0,0.25,0],[0,0.5,0],[0,0.75,0],[1,0.25,0],[1,0.5,0],[1,0.75,0]];outlineConnect=0;fontColor=#232F3E;fillColor=#ED7100;strokeColor=#ffffff;dashed=0;verticalLabelPosition=bottom;verticalAlign=top;align=center;html=1;fontSize=12;fontStyle=0;aspect=fixed;shape=mxgraph.aws4.resourceIcon;resIcon=mxgraph.aws4.lambda;" parent="1" vertex="1">
          <mxGeometry x="760" y="350" width="40" height="40" as="geometry" />
        </mxCell>
        <mxCell id="AS2f9lZHMe0GR5eItfKD-171" value="" style="sketch=0;points=[[0,0,0],[0.25,0,0],[0.5,0,0],[0.75,0,0],[1,0,0],[0,1,0],[0.25,1,0],[0.5,1,0],[0.75,1,0],[1,1,0],[0,0.25,0],[0,0.5,0],[0,0.75,0],[1,0.25,0],[1,0.5,0],[1,0.75,0]];outlineConnect=0;fontColor=#232F3E;fillColor=#7AA116;strokeColor=#ffffff;dashed=0;verticalLabelPosition=bottom;verticalAlign=top;align=center;html=1;fontSize=12;fontStyle=1;aspect=fixed;shape=mxgraph.aws4.resourceIcon;resIcon=mxgraph.aws4.iot_core;" parent="1" vertex="1">
          <mxGeometry x="570" y="447.5" width="40" height="40" as="geometry" />
        </mxCell>
        <mxCell id="AS2f9lZHMe0GR5eItfKD-173" value="" style="sketch=0;points=[[0,0,0],[0.25,0,0],[0.5,0,0],[0.75,0,0],[1,0,0],[0,1,0],[0.25,1,0],[0.5,1,0],[0.75,1,0],[1,1,0],[0,0.25,0],[0,0.5,0],[0,0.75,0],[1,0.25,0],[1,0.5,0],[1,0.75,0]];outlineConnect=0;fontColor=#232F3E;fillColor=#7AA116;strokeColor=#ffffff;dashed=0;verticalLabelPosition=bottom;verticalAlign=top;align=center;html=1;fontSize=12;fontStyle=0;aspect=fixed;shape=mxgraph.aws4.resourceIcon;resIcon=mxgraph.aws4.iot_device_defender;" parent="1" vertex="1">
          <mxGeometry x="570" y="262.81999999999994" width="40" height="40" as="geometry" />
        </mxCell>
        <mxCell id="AS2f9lZHMe0GR5eItfKD-174" value="" style="sketch=0;points=[[0,0,0],[0.25,0,0],[0.5,0,0],[0.75,0,0],[1,0,0],[0,1,0],[0.25,1,0],[0.5,1,0],[0.75,1,0],[1,1,0],[0,0.25,0],[0,0.5,0],[0,0.75,0],[1,0.25,0],[1,0.5,0],[1,0.75,0]];outlineConnect=0;fontColor=#232F3E;fillColor=#E7157B;strokeColor=#ffffff;dashed=0;verticalLabelPosition=bottom;verticalAlign=top;align=center;html=1;fontSize=12;fontStyle=0;aspect=fixed;shape=mxgraph.aws4.resourceIcon;resIcon=mxgraph.aws4.sns;" parent="1" vertex="1">
          <mxGeometry x="669" y="262.81999999999994" width="40" height="40" as="geometry" />
        </mxCell>
        <mxCell id="AS2f9lZHMe0GR5eItfKD-177" value="AWS IoT Greengrass Deployment" style="text;html=1;strokeColor=none;fillColor=none;align=center;verticalAlign=middle;whiteSpace=wrap;rounded=0;fontStyle=1" parent="1" vertex="1">
          <mxGeometry x="560" y="592.5" width="60" height="50" as="geometry" />
        </mxCell>
        <mxCell id="AS2f9lZHMe0GR5eItfKD-178" value="" style="sketch=0;points=[[0,0,0],[0.25,0,0],[0.5,0,0],[0.75,0,0],[1,0,0],[0,1,0],[0.25,1,0],[0.5,1,0],[0.75,1,0],[1,1,0],[0,0.25,0],[0,0.5,0],[0,0.75,0],[1,0.25,0],[1,0.5,0],[1,0.75,0]];outlineConnect=0;fontColor=#232F3E;fillColor=#7AA116;strokeColor=#ffffff;dashed=0;verticalLabelPosition=bottom;verticalAlign=top;align=center;html=1;fontSize=12;fontStyle=0;aspect=fixed;shape=mxgraph.aws4.resourceIcon;resIcon=mxgraph.aws4.s3;" parent="1" vertex="1">
          <mxGeometry x="742" y="180" width="40" height="40" as="geometry" />
        </mxCell>
        <mxCell id="AS2f9lZHMe0GR5eItfKD-179" value="" style="sketch=0;points=[[0,0,0],[0.25,0,0],[0.5,0,0],[0.75,0,0],[1,0,0],[0,1,0],[0.25,1,0],[0.5,1,0],[0.75,1,0],[1,1,0],[0,0.25,0],[0,0.5,0],[0,0.75,0],[1,0.25,0],[1,0.5,0],[1,0.75,0]];outlineConnect=0;fontColor=#232F3E;fillColor=#ED7100;strokeColor=#ffffff;dashed=0;verticalLabelPosition=bottom;verticalAlign=top;align=center;html=1;fontSize=12;fontStyle=0;aspect=fixed;shape=mxgraph.aws4.resourceIcon;resIcon=mxgraph.aws4.ecr;" parent="1" vertex="1">
          <mxGeometry x="740" y="552.5" width="40" height="40" as="geometry" />
        </mxCell>
        <mxCell id="AS2f9lZHMe0GR5eItfKD-180" value="Prod" style="text;html=1;strokeColor=none;fillColor=none;align=center;verticalAlign=middle;whiteSpace=wrap;rounded=0;fontSize=20;fontStyle=1;fontColor=#000000;" parent="1" vertex="1">
          <mxGeometry x="520" y="125" width="78.72" height="30" as="geometry" />
        </mxCell>
        <mxCell id="AS2f9lZHMe0GR5eItfKD-50" value="" style="sketch=0;outlineConnect=0;fontColor=#232F3E;gradientColor=none;fillColor=#7AA116;strokeColor=none;dashed=0;verticalLabelPosition=bottom;verticalAlign=top;align=center;html=1;fontSize=12;fontStyle=0;aspect=fixed;pointerEvents=1;shape=mxgraph.aws4.rule;" parent="1" vertex="1">
          <mxGeometry x="669" y="346.0800000000004" width="40" height="67.83" as="geometry" />
        </mxCell>
        <mxCell id="AS2f9lZHMe0GR5eItfKD-181" value="AWS IoT Core" style="text;html=1;strokeColor=none;fillColor=none;align=center;verticalAlign=middle;whiteSpace=wrap;rounded=0;fontStyle=1" parent="1" vertex="1">
          <mxGeometry x="560" y="485" width="60" height="40" as="geometry" />
        </mxCell>
        <mxCell id="AS2f9lZHMe0GR5eItfKD-182" value="AWS IoT Device Defender" style="text;html=1;strokeColor=none;fillColor=none;align=center;verticalAlign=middle;whiteSpace=wrap;rounded=0;fontStyle=1" parent="1" vertex="1">
          <mxGeometry x="560" y="302.81999999999994" width="60" height="50" as="geometry" />
        </mxCell>
        <mxCell id="AS2f9lZHMe0GR5eItfKD-183" value="Amazon SNS" style="text;html=1;strokeColor=none;fillColor=none;align=center;verticalAlign=middle;whiteSpace=wrap;rounded=0;fontStyle=1" parent="1" vertex="1">
          <mxGeometry x="659" y="302.82" width="60" height="37.18" as="geometry" />
        </mxCell>
        <mxCell id="AS2f9lZHMe0GR5eItfKD-184" value="Docker images" style="text;html=1;strokeColor=none;fillColor=none;align=center;verticalAlign=middle;whiteSpace=wrap;rounded=0;fontStyle=1" parent="1" vertex="1">
          <mxGeometry x="730" y="592.5" width="60" height="37.5" as="geometry" />
        </mxCell>
        <mxCell id="AS2f9lZHMe0GR5eItfKD-185" value="IoT rule" style="text;html=1;strokeColor=none;fillColor=none;align=center;verticalAlign=middle;whiteSpace=wrap;rounded=0;fontStyle=1" parent="1" vertex="1">
          <mxGeometry x="659" y="414.99999999999994" width="60" height="26.08" as="geometry" />
        </mxCell>
        <mxCell id="AS2f9lZHMe0GR5eItfKD-186" value="" style="sketch=0;points=[[0,0,0],[0.25,0,0],[0.5,0,0],[0.75,0,0],[1,0,0],[0,1,0],[0.25,1,0],[0.5,1,0],[0.75,1,0],[1,1,0],[0,0.25,0],[0,0.5,0],[0,0.75,0],[1,0.25,0],[1,0.5,0],[1,0.75,0]];outlineConnect=0;fontColor=#232F3E;fillColor=#ED7100;strokeColor=#ffffff;dashed=0;verticalLabelPosition=bottom;verticalAlign=top;align=center;html=1;fontSize=12;fontStyle=0;aspect=fixed;shape=mxgraph.aws4.resourceIcon;resIcon=mxgraph.aws4.lambda;" parent="1" vertex="1">
          <mxGeometry x="755" y="355" width="40" height="40" as="geometry" />
        </mxCell>
        <mxCell id="AS2f9lZHMe0GR5eItfKD-187" value="" style="sketch=0;points=[[0,0,0],[0.25,0,0],[0.5,0,0],[0.75,0,0],[1,0,0],[0,1,0],[0.25,1,0],[0.5,1,0],[0.75,1,0],[1,1,0],[0,0.25,0],[0,0.5,0],[0,0.75,0],[1,0.25,0],[1,0.5,0],[1,0.75,0]];outlineConnect=0;fontColor=#232F3E;fillColor=#ED7100;strokeColor=#ffffff;dashed=0;verticalLabelPosition=bottom;verticalAlign=top;align=center;html=1;fontSize=12;fontStyle=0;aspect=fixed;shape=mxgraph.aws4.resourceIcon;resIcon=mxgraph.aws4.lambda;" parent="1" vertex="1">
          <mxGeometry x="750" y="360" width="40" height="40" as="geometry" />
        </mxCell>
        <mxCell id="AS2f9lZHMe0GR5eItfKD-189" value="" style="endArrow=classic;startArrow=none;html=1;rounded=0;startFill=0;" parent="1" edge="1">
          <mxGeometry width="50" height="50" relative="1" as="geometry">
            <mxPoint x="610" y="282.81999999999994" as="sourcePoint" />
            <mxPoint x="670" y="282.81999999999994" as="targetPoint" />
          </mxGeometry>
        </mxCell>
        <mxCell id="AS2f9lZHMe0GR5eItfKD-190" value="" style="endArrow=classic;startArrow=none;html=1;rounded=0;startFill=0;entryX=0.25;entryY=0;entryDx=0;entryDy=0;entryPerimeter=0;" parent="1" source="AS2f9lZHMe0GR5eItfKD-174" target="AS2f9lZHMe0GR5eItfKD-170" edge="1">
          <mxGeometry width="50" height="50" relative="1" as="geometry">
            <mxPoint x="710" y="325" as="sourcePoint" />
            <mxPoint x="790" y="365" as="targetPoint" />
            <Array as="points">
              <mxPoint x="770" y="283" />
            </Array>
          </mxGeometry>
        </mxCell>
        <mxCell id="AS2f9lZHMe0GR5eItfKD-191" value="" style="endArrow=classic;startArrow=none;html=1;rounded=0;startFill=0;exitX=1;exitY=0.25;exitDx=0;exitDy=0;exitPerimeter=0;" parent="1" source="AS2f9lZHMe0GR5eItfKD-171" target="AS2f9lZHMe0GR5eItfKD-50" edge="1">
          <mxGeometry width="50" height="50" relative="1" as="geometry">
            <mxPoint x="610" y="465" as="sourcePoint" />
            <mxPoint x="660" y="465" as="targetPoint" />
            <Array as="points">
              <mxPoint x="640" y="457.5" />
              <mxPoint x="640" y="380" />
            </Array>
          </mxGeometry>
        </mxCell>
        <mxCell id="AS2f9lZHMe0GR5eItfKD-192" value="" style="endArrow=classic;startArrow=none;html=1;rounded=0;startFill=0;entryX=0;entryY=0.5;entryDx=0;entryDy=0;entryPerimeter=0;" parent="1" source="AS2f9lZHMe0GR5eItfKD-50" target="AS2f9lZHMe0GR5eItfKD-187" edge="1">
          <mxGeometry width="50" height="50" relative="1" as="geometry">
            <mxPoint x="720" y="465" as="sourcePoint" />
            <mxPoint x="770" y="380" as="targetPoint" />
          </mxGeometry>
        </mxCell>
        <mxCell id="AS2f9lZHMe0GR5eItfKD-194" value="" style="endArrow=classic;startArrow=classic;html=1;rounded=0;startFill=1;exitX=0.5;exitY=0;exitDx=0;exitDy=0;exitPerimeter=0;entryX=0.5;entryY=1;entryDx=0;entryDy=0;" parent="1" source="AS2f9lZHMe0GR5eItfKD-171" target="AS2f9lZHMe0GR5eItfKD-182" edge="1">
          <mxGeometry width="50" height="50" relative="1" as="geometry">
            <mxPoint x="430" y="475" as="sourcePoint" />
            <mxPoint x="429" y="440.3000000000002" as="targetPoint" />
          </mxGeometry>
        </mxCell>
        <mxCell id="AS2f9lZHMe0GR5eItfKD-195" value="" style="endArrow=classic;startArrow=classic;html=1;rounded=0;startFill=1;exitX=0.5;exitY=0;exitDx=0;exitDy=0;" parent="1" source="AS2f9lZHMe0GR5eItfKD-162" edge="1">
          <mxGeometry width="50" height="50" relative="1" as="geometry">
            <mxPoint x="590" y="550" as="sourcePoint" />
            <mxPoint x="590" y="525" as="targetPoint" />
          </mxGeometry>
        </mxCell>
        <mxCell id="AS2f9lZHMe0GR5eItfKD-196" value="" style="endArrow=classic;startArrow=classic;html=1;rounded=0;startFill=1;exitX=0;exitY=0.5;exitDx=0;exitDy=0;exitPerimeter=0;strokeWidth=3;" parent="1" source="AS2f9lZHMe0GR5eItfKD-171" target="AS2f9lZHMe0GR5eItfKD-51" edge="1">
          <mxGeometry width="50" height="50" relative="1" as="geometry">
            <mxPoint x="600" y="455" as="sourcePoint" />
            <mxPoint x="600" y="405" as="targetPoint" />
          </mxGeometry>
        </mxCell>
        <mxCell id="AS2f9lZHMe0GR5eItfKD-201" value="" style="rounded=0;whiteSpace=wrap;html=1;strokeColor=none;fillColor=#B3B3B3;" parent="1" vertex="1">
          <mxGeometry x="540" y="165" width="160" height="70" as="geometry" />
        </mxCell>
        <mxCell id="AS2f9lZHMe0GR5eItfKD-172" value="" style="sketch=0;points=[[0,0,0],[0.25,0,0],[0.5,0,0],[0.75,0,0],[1,0,0],[0,1,0],[0.25,1,0],[0.5,1,0],[0.75,1,0],[1,1,0],[0,0.25,0],[0,0.5,0],[0,0.75,0],[1,0.25,0],[1,0.5,0],[1,0.75,0]];outlineConnect=0;fontColor=#232F3E;fillColor=#DD344C;strokeColor=#ffffff;dashed=0;verticalLabelPosition=bottom;verticalAlign=top;align=center;html=1;fontSize=12;fontStyle=0;aspect=fixed;shape=mxgraph.aws4.resourceIcon;resIcon=mxgraph.aws4.identity_and_access_management;" parent="1" vertex="1">
          <mxGeometry x="547.5" y="172.6199999999999" width="40" height="40" as="geometry" />
        </mxCell>
        <mxCell id="AS2f9lZHMe0GR5eItfKD-193" value="IAM" style="text;html=1;strokeColor=none;fillColor=none;align=center;verticalAlign=middle;whiteSpace=wrap;rounded=0;fontStyle=1" parent="1" vertex="1">
          <mxGeometry x="545" y="212.6199999999999" width="45" height="22.38" as="geometry" />
        </mxCell>
        <mxCell id="AS2f9lZHMe0GR5eItfKD-197" value="" style="sketch=0;outlineConnect=0;fontColor=#232F3E;gradientColor=none;fillColor=#DD344C;strokeColor=none;dashed=0;verticalLabelPosition=bottom;verticalAlign=top;align=center;html=1;fontSize=12;fontStyle=0;aspect=fixed;pointerEvents=1;shape=mxgraph.aws4.role;" parent="1" vertex="1">
          <mxGeometry x="609" y="185" width="27" height="15.24" as="geometry" />
        </mxCell>
        <mxCell id="AS2f9lZHMe0GR5eItfKD-198" value="" style="sketch=0;outlineConnect=0;fontColor=#232F3E;gradientColor=none;fillColor=#DD344C;strokeColor=none;dashed=0;verticalLabelPosition=bottom;verticalAlign=top;align=center;html=1;fontSize=12;fontStyle=0;aspect=fixed;pointerEvents=1;shape=mxgraph.aws4.permissions;" parent="1" vertex="1">
          <mxGeometry x="657.5" y="175.62999999999988" width="27" height="33.97" as="geometry" />
        </mxCell>
        <mxCell id="AS2f9lZHMe0GR5eItfKD-199" value="Roles" style="text;html=1;strokeColor=none;fillColor=none;align=center;verticalAlign=middle;whiteSpace=wrap;rounded=0;fontStyle=0" parent="1" vertex="1">
          <mxGeometry x="600" y="212.6199999999999" width="45" height="22.38" as="geometry" />
        </mxCell>
        <mxCell id="AS2f9lZHMe0GR5eItfKD-200" value="Policies" style="text;html=1;strokeColor=none;fillColor=none;align=center;verticalAlign=middle;whiteSpace=wrap;rounded=0;fontStyle=0" parent="1" vertex="1">
          <mxGeometry x="652" y="212.6199999999999" width="38" height="22.38" as="geometry" />
        </mxCell>
        <mxCell id="AS2f9lZHMe0GR5eItfKD-203" value="Amazon S3" style="text;html=1;strokeColor=none;fillColor=none;align=center;verticalAlign=middle;whiteSpace=wrap;rounded=0;fontStyle=1" parent="1" vertex="1">
          <mxGeometry x="732" y="220" width="60" height="40" as="geometry" />
        </mxCell>
        <mxCell id="AS2f9lZHMe0GR5eItfKD-204" value="" style="sketch=0;outlineConnect=0;fontColor=#232F3E;gradientColor=none;strokeColor=#232F3E;fillColor=#ffffff;dashed=0;verticalLabelPosition=bottom;verticalAlign=top;align=center;html=1;fontSize=12;fontStyle=0;aspect=fixed;shape=mxgraph.aws4.resourceIcon;resIcon=mxgraph.aws4.aws_cloud;" parent="1" vertex="1">
          <mxGeometry x="840" y="340" width="80" height="80" as="geometry" />
        </mxCell>
        <mxCell id="AS2f9lZHMe0GR5eItfKD-205" value="AWS Ressources" style="text;html=1;strokeColor=none;fillColor=none;align=center;verticalAlign=middle;whiteSpace=wrap;rounded=0;fontStyle=1" parent="1" vertex="1">
          <mxGeometry x="850" y="415.01" width="60" height="40" as="geometry" />
        </mxCell>
        <mxCell id="AS2f9lZHMe0GR5eItfKD-206" value="AWS Lambda" style="text;html=1;strokeColor=none;fillColor=none;align=center;verticalAlign=middle;whiteSpace=wrap;rounded=0;fontStyle=1" parent="1" vertex="1">
          <mxGeometry x="740" y="399.9999999999998" width="60" height="36.09" as="geometry" />
        </mxCell>
        <mxCell id="AS2f9lZHMe0GR5eItfKD-207" value="" style="endArrow=classic;startArrow=none;html=1;rounded=0;startFill=0;exitX=0;exitY=0.5;exitDx=0;exitDy=0;exitPerimeter=0;entryX=1;entryY=0.5;entryDx=0;entryDy=0;" parent="1" source="AS2f9lZHMe0GR5eItfKD-179" target="AS2f9lZHMe0GR5eItfKD-162" edge="1">
          <mxGeometry width="50" height="50" relative="1" as="geometry">
            <mxPoint x="620" y="475" as="sourcePoint" />
            <mxPoint x="680" y="475" as="targetPoint" />
          </mxGeometry>
        </mxCell>
        <mxCell id="AS2f9lZHMe0GR5eItfKD-208" value="" style="endArrow=classic;startArrow=none;html=1;rounded=0;startFill=0;exitX=0.5;exitY=1;exitDx=0;exitDy=0;entryX=1;entryY=0.5;entryDx=0;entryDy=0;entryPerimeter=0;" parent="1" source="AS2f9lZHMe0GR5eItfKD-206" target="AS2f9lZHMe0GR5eItfKD-171" edge="1">
          <mxGeometry width="50" height="50" relative="1" as="geometry">
            <mxPoint x="770" y="475" as="sourcePoint" />
            <mxPoint x="610" y="475" as="targetPoint" />
            <Array as="points">
              <mxPoint x="770" y="468" />
            </Array>
          </mxGeometry>
        </mxCell>
        <mxCell id="AS2f9lZHMe0GR5eItfKD-210" value="" style="endArrow=classic;startArrow=classic;html=1;rounded=0;startFill=1;exitX=0.5;exitY=1;exitDx=0;exitDy=0;entryX=1;entryY=0.75;entryDx=0;entryDy=0;entryPerimeter=0;" parent="1" source="AS2f9lZHMe0GR5eItfKD-205" target="AS2f9lZHMe0GR5eItfKD-171" edge="1">
          <mxGeometry width="50" height="50" relative="1" as="geometry">
            <mxPoint x="796" y="468.9200000000001" as="sourcePoint" />
            <mxPoint x="609" y="478.9200000000001" as="targetPoint" />
            <Array as="points">
              <mxPoint x="880" y="478" />
            </Array>
          </mxGeometry>
        </mxCell>
        <mxCell id="AS2f9lZHMe0GR5eItfKD-211" value="" style="endArrow=classic;startArrow=none;html=1;rounded=0;startFill=0;exitX=1;exitY=0.75;exitDx=0;exitDy=0;exitPerimeter=0;" parent="1" source="AS2f9lZHMe0GR5eItfKD-170" target="AS2f9lZHMe0GR5eItfKD-204" edge="1">
          <mxGeometry width="50" height="50" relative="1" as="geometry">
            <mxPoint x="820" y="375" as="sourcePoint" />
            <mxPoint x="870" y="374.8299999999999" as="targetPoint" />
          </mxGeometry>
        </mxCell>
        <mxCell id="AS2f9lZHMe0GR5eItfKD-213" value="Dev" style="text;html=1;strokeColor=none;fillColor=none;align=center;verticalAlign=middle;whiteSpace=wrap;rounded=0;fontSize=20;fontStyle=1;fontColor=#000000;" parent="1" vertex="1">
          <mxGeometry x="550" y="95" width="78.72" height="30" as="geometry" />
        </mxCell>
        <mxCell id="AS2f9lZHMe0GR5eItfKD-214" value="" style="endArrow=classic;startArrow=classic;html=1;rounded=0;startFill=1;strokeWidth=3;" parent="1" source="AS2f9lZHMe0GR5eItfKD-51" edge="1">
          <mxGeometry width="50" height="50" relative="1" as="geometry">
            <mxPoint x="409" y="467.2900000000002" as="sourcePoint" />
            <mxPoint x="329" y="467.2900000000002" as="targetPoint" />
          </mxGeometry>
        </mxCell>
        <mxCell id="sozwdAKCtoEkcX04DDRB-1" value="" style="group" vertex="1" connectable="0" parent="1">
          <mxGeometry x="94.5" y="437.5" width="90" height="50" as="geometry" />
        </mxCell>
        <mxCell id="AS2f9lZHMe0GR5eItfKD-137" value="Application" style="rounded=0;whiteSpace=wrap;html=1;" parent="sozwdAKCtoEkcX04DDRB-1" vertex="1">
          <mxGeometry x="10" width="80" height="40" as="geometry" />
        </mxCell>
        <mxCell id="AS2f9lZHMe0GR5eItfKD-138" value="Application" style="rounded=0;whiteSpace=wrap;html=1;" parent="sozwdAKCtoEkcX04DDRB-1" vertex="1">
          <mxGeometry x="5" y="5" width="80" height="40" as="geometry" />
        </mxCell>
        <mxCell id="AS2f9lZHMe0GR5eItfKD-139" value="Applications" style="rounded=0;whiteSpace=wrap;html=1;" parent="sozwdAKCtoEkcX04DDRB-1" vertex="1">
          <mxGeometry y="10" width="80" height="40" as="geometry" />
        </mxCell>
      </root>
    </mxGraphModel>
  </diagram>
</mxfile>
